<svg width="139" height="38" viewBox="0 0 139 38" fill="none" xmlns="http://www.w3.org/2000/svg">
<path d="M47.553 17.7557H41.0587C41.0246 17.3551 40.884 17.0099 40.6368 16.7202C40.3896 16.4304 40.07 16.2088 39.678 16.0554C39.2945 15.8935 38.8683 15.8125 38.3996 15.8125C37.7945 15.8125 37.2746 15.9233 36.8399 16.1449C36.4053 16.3665 36.1922 16.6818 36.2007 17.0909C36.1922 17.3807 36.3158 17.6491 36.5715 17.8963C36.8357 18.1435 37.3428 18.3352 38.0928 18.4716L42.0814 19.1875C44.0928 19.554 45.5885 20.1719 46.5686 21.0412C47.5573 21.902 48.0558 23.0568 48.0644 24.5057C48.0558 25.9034 47.6382 27.1179 46.8115 28.1491C45.9933 29.1719 44.8726 29.9645 43.4493 30.527C42.0345 31.081 40.4195 31.358 38.6041 31.358C35.6041 31.358 33.2561 30.7443 31.5601 29.517C29.8726 28.2898 28.9308 26.6705 28.7348 24.6591H35.7405C35.8342 25.2812 36.1411 25.7628 36.661 26.1037C37.1894 26.4361 37.8541 26.6023 38.6553 26.6023C39.303 26.6023 39.8357 26.4915 40.2533 26.2699C40.6794 26.0483 40.8967 25.733 40.9053 25.3239C40.8967 24.9489 40.7092 24.6506 40.3428 24.429C39.9848 24.2074 39.4223 24.0284 38.6553 23.892L35.178 23.2784C33.1752 22.929 31.6752 22.2642 30.678 21.2841C29.6808 20.304 29.1865 19.0426 29.195 17.5C29.1865 16.1364 29.5445 14.9815 30.2689 14.0355C31.0019 13.081 32.0459 12.3565 33.401 11.8622C34.7646 11.3594 36.3797 11.108 38.2462 11.108C41.0842 11.108 43.3215 11.696 44.9578 12.8722C46.6027 14.0483 47.4678 15.6761 47.553 17.7557ZM62.4784 11.3636V16.4773H49.5409V11.3636H62.4784ZM52.0466 6.65909H59.1034V24.6847C59.1034 24.9574 59.1503 25.1875 59.244 25.375C59.3378 25.554 59.4827 25.6903 59.6787 25.7841C59.8747 25.8693 60.1262 25.9119 60.433 25.9119C60.646 25.9119 60.8932 25.8864 61.1744 25.8352C61.4642 25.7841 61.6773 25.7415 61.8137 25.7074L62.8364 30.6676C62.521 30.7614 62.0693 30.8764 61.4813 31.0128C60.9017 31.1491 60.2114 31.2386 59.4102 31.2812C57.7909 31.3665 56.4315 31.2003 55.3321 30.7827C54.2327 30.3565 53.406 29.6875 52.852 28.7756C52.298 27.8636 52.0296 26.7216 52.0466 25.3494V6.65909ZM65.358 31V11.3636H72.2103V15.0966H72.4149C72.7728 13.7159 73.3396 12.706 74.1151 12.0668C74.8992 11.4276 75.8154 11.108 76.8637 11.108C77.1705 11.108 77.4731 11.1335 77.7714 11.1847C78.0782 11.2273 78.3722 11.2912 78.6535 11.3764V17.3977C78.3041 17.2784 77.8737 17.1889 77.3623 17.1293C76.8509 17.0696 76.412 17.0398 76.0455 17.0398C75.3552 17.0398 74.733 17.1974 74.1791 17.5128C73.6336 17.8196 73.2032 18.2543 72.8879 18.8168C72.5725 19.3707 72.4149 20.0227 72.4149 20.7727V31H65.358Z" fill="#4EA8DE"/>
<path d="M80.9674 31V11.3636H88.0242V31H80.9674ZM84.4958 9.31818C83.5413 9.31818 82.7231 9.00284 82.0413 8.37216C81.3595 7.74148 81.0186 6.98295 81.0186 6.09659C81.0186 5.21023 81.3595 4.4517 82.0413 3.82102C82.7231 3.19034 83.5413 2.875 84.4958 2.875C85.4589 2.875 86.2771 3.19034 86.9504 3.82102C87.6322 4.4517 87.9731 5.21023 87.9731 6.09659C87.9731 6.98295 87.6322 7.74148 86.9504 8.37216C86.2771 9.00284 85.4589 9.31818 84.4958 9.31818ZM98.7277 31.2557C97.33 31.2557 96.0431 30.8892 94.8669 30.1562C93.6993 29.4233 92.7618 28.3111 92.0544 26.8196C91.3556 25.3281 91.0061 23.4489 91.0061 21.1818C91.0061 18.8125 91.3726 16.8864 92.1056 15.4034C92.847 13.9205 93.8016 12.8338 94.9692 12.1435C96.1453 11.4531 97.3811 11.108 98.6766 11.108C99.6482 11.108 100.5 11.2784 101.233 11.6193C101.966 11.9517 102.58 12.3991 103.074 12.9616C103.569 13.5156 103.944 14.125 104.199 14.7898H104.302V4.81818H111.358V31H104.353V27.7784H104.199C103.927 28.4432 103.535 29.0398 103.023 29.5682C102.52 30.0881 101.907 30.5014 101.182 30.8082C100.466 31.1065 99.6482 31.2557 98.7277 31.2557ZM101.336 25.8352C101.983 25.8352 102.537 25.6477 102.998 25.2727C103.466 24.8892 103.824 24.3523 104.071 23.6619C104.327 22.9631 104.455 22.1364 104.455 21.1818C104.455 20.2102 104.327 19.3793 104.071 18.6889C103.824 17.9901 103.466 17.4574 102.998 17.0909C102.537 16.7159 101.983 16.5284 101.336 16.5284C100.688 16.5284 100.134 16.7159 99.6737 17.0909C99.222 17.4574 98.8726 17.9901 98.6254 18.6889C98.3868 19.3793 98.2675 20.2102 98.2675 21.1818C98.2675 22.1534 98.3868 22.9886 98.6254 23.6875C98.8726 24.3778 99.222 24.9105 99.6737 25.2855C100.134 25.652 100.688 25.8352 101.336 25.8352ZM124.232 31.358C122.135 31.358 120.329 30.9574 118.812 30.1562C117.303 29.3466 116.14 28.1875 115.321 26.679C114.512 25.1619 114.107 23.3466 114.107 21.233C114.107 19.2045 114.516 17.4318 115.334 15.9148C116.152 14.3977 117.307 13.2173 118.799 12.3736C120.29 11.5298 122.05 11.108 124.079 11.108C125.562 11.108 126.904 11.3381 128.106 11.7983C129.307 12.2585 130.334 12.9276 131.187 13.8054C132.039 14.6747 132.695 15.7315 133.155 16.9759C133.615 18.2202 133.846 19.6222 133.846 21.1818V22.8182H116.306V18.9318H127.351C127.343 18.3693 127.198 17.875 126.917 17.4489C126.644 17.0142 126.273 16.6776 125.804 16.4389C125.344 16.1918 124.82 16.0682 124.232 16.0682C123.661 16.0682 123.137 16.1918 122.66 16.4389C122.182 16.6776 121.799 17.0099 121.509 17.4361C121.228 17.8622 121.079 18.3608 121.062 18.9318V23.125C121.062 23.7557 121.194 24.3182 121.458 24.8125C121.722 25.3068 122.101 25.6946 122.596 25.9759C123.09 26.2571 123.687 26.3977 124.385 26.3977C124.871 26.3977 125.314 26.3295 125.715 26.1932C126.124 26.0568 126.473 25.8608 126.763 25.6051C127.053 25.3409 127.266 25.0256 127.402 24.6591H133.846C133.624 26.0227 133.1 27.2074 132.273 28.2131C131.446 29.2102 130.351 29.9858 128.988 30.5398C127.633 31.0852 126.047 31.358 124.232 31.358Z" fill="#5E60CE"/>
<path d="M11.6335 5.11614C14.9393 9.0614 16.7041 13.9266 16.6401 18.9188V20.1105L17.7308 20.7344C19.14 21.5364 20.191 22.7803 20.6923 24.2394C20.2522 23.9348 19.7918 23.6562 19.3138 23.4052L16.4053 21.87L15.8826 24.9684C15.8374 25.2422 15.7767 25.5136 15.7009 25.7816H7.55095C7.42976 25.4311 7.33129 25.0806 7.2404 24.7161L6.58144 21.9121L3.90015 23.3141C3.4522 23.5495 3.01971 23.8094 2.60495 24.0922C3.11597 22.6499 4.14505 21.413 5.52105 20.5872L6.55872 19.9633V18.8557C6.57744 13.8837 8.36339 9.05556 11.6411 5.11614H11.6335ZM11.6411 2.19998C11.4711 2.20037 11.307 2.25763 11.179 2.36121L11.1109 2.41729C6.7432 6.93822 4.3179 12.7842 4.29401 18.8487C2.44059 19.9616 1.06865 21.6419 0.417947 23.5959C-0.232759 25.55 -0.120853 27.6535 0.73411 29.5389C1.63477 27.698 3.14037 26.1672 5.03629 25.1647C5.22643 25.927 5.47966 26.6746 5.79372 27.4009C5.83355 27.5405 5.92183 27.6642 6.045 27.7528C6.16816 27.8415 6.31938 27.8902 6.4754 27.8916H16.9885C17.2006 27.8916 17.4126 27.7023 17.5187 27.4079C17.8252 26.7174 18.0389 25.9946 18.1549 25.2558C20.0545 26.2541 21.5613 27.7862 22.4571 29.6301C23.3637 27.7539 23.504 25.6371 22.8521 23.6725C22.2002 21.7078 20.8004 20.0287 18.9123 18.9468C18.9873 12.8466 16.5748 6.94434 12.1561 2.41729C12.0903 2.3492 12.0098 2.29467 11.9197 2.25724C11.8297 2.2198 11.7322 2.20029 11.6335 2.19998H11.6411Z" fill="#4EA8DE"/>
<path d="M11.6336 18.2669C11.0518 18.2669 10.483 18.1075 9.99902 17.8088C9.51499 17.5101 9.13735 17.0854 8.91369 16.5884C8.69003 16.0913 8.63037 15.5441 8.74223 15.0157C8.85409 14.4873 9.13246 14.0014 9.54225 13.6192C9.95204 13.2371 10.4749 12.9757 11.0449 12.8681C11.615 12.7605 12.2067 12.8116 12.7454 13.0147C13.2842 13.2179 13.7459 13.5641 14.0724 14.0098C14.3989 14.4555 14.5755 14.9806 14.5799 15.519V15.519C14.589 15.8679 14.5237 16.2151 14.3877 16.5406C14.2518 16.8662 14.0479 17.1637 13.7876 17.4163C13.5273 17.6689 13.2159 17.8716 12.871 18.0127C12.5261 18.1538 12.1545 18.2307 11.7775 18.2389C11.7298 18.2459 11.6812 18.2459 11.6336 18.2389V18.2669Z" fill="#4EA8DE"/>
<path d="M15.7311 29.6371C15.5416 29.6314 15.3528 29.6609 15.1757 29.7238C14.9987 29.7866 14.837 29.8815 14.7001 30.003C14.5633 30.1244 14.454 30.2699 14.3787 30.431C14.3034 30.5921 14.2636 30.7654 14.2617 30.9409V35.0768C14.2617 35.4375 14.4165 35.7834 14.6921 36.0384C14.9677 36.2935 15.3414 36.4367 15.7311 36.4367C16.1208 36.4367 16.4946 36.2935 16.7702 36.0384C17.0457 35.7834 17.2005 35.4375 17.2005 35.0768V30.997C17.2066 30.8222 17.175 30.648 17.1076 30.4846C17.0401 30.3212 16.9382 30.1719 16.8078 30.0453C16.6774 29.9187 16.521 29.8174 16.3479 29.7473C16.1747 29.6772 15.9883 29.6398 15.7993 29.6371H15.7311Z" fill="#5E60CE"/>
<path d="M7.55099 29.6371C7.35825 29.6276 7.16543 29.6542 6.984 29.7151C6.80257 29.7761 6.63625 29.8702 6.49491 29.9918C6.35358 30.1135 6.24013 30.2602 6.16131 30.4232C6.0825 30.5863 6.03993 30.7623 6.03613 30.9409V35.0768C6.03613 35.4375 6.19094 35.7834 6.46651 36.0385C6.74208 36.2935 7.11583 36.4368 7.50554 36.4368C7.89525 36.4368 8.269 36.2935 8.54457 36.0385C8.82014 35.7834 8.97495 35.4375 8.97495 35.0768V30.997C8.981 30.8222 8.9494 30.648 8.88197 30.4846C8.81455 30.3212 8.71265 30.1719 8.58223 30.0453C8.45181 29.9187 8.29546 29.8174 8.12231 29.7474C7.94916 29.6773 7.76267 29.6398 7.57371 29.6371H7.55099Z" fill="#5E60CE"/>
<path d="M11.5273 29.6371C11.3383 29.6334 11.1503 29.6642 10.9742 29.7277C10.798 29.7912 10.6372 29.8862 10.5007 30.0073C10.3642 30.1284 10.2549 30.2732 10.1789 30.4334C10.1029 30.5936 10.0618 30.7661 10.0579 30.941V36.6401C10.0579 37.0008 10.2127 37.3467 10.4882 37.6017C10.7638 37.8568 11.1376 38.0001 11.5273 38.0001C11.917 38.0001 12.2907 37.8568 12.5663 37.6017C12.8419 37.3467 12.9967 37.0008 12.9967 36.6401V31.0321C13.0027 30.8573 12.9711 30.6831 12.9037 30.5197C12.8363 30.3563 12.7344 30.207 12.604 30.0804C12.4735 29.9538 12.3172 29.8526 12.144 29.7825C11.9709 29.7124 11.7844 29.6749 11.5954 29.6722L11.5273 29.6371Z" fill="#5E60CE"/>
</svg>
