<svg width="161" height="50" viewBox="0 0 161 50" fill="none" xmlns="http://www.w3.org/2000/svg">
<path d="M57.9201 24.2841H50.7042C50.6663 23.839 50.5101 23.4555 50.2354 23.1335C49.9608 22.8116 49.6057 22.5653 49.1701 22.3949C48.744 22.215 48.2705 22.125 47.7496 22.125C47.0773 22.125 46.4996 22.2481 46.0167 22.4943C45.5337 22.7405 45.297 23.0909 45.3065 23.5455C45.297 23.8674 45.4343 24.1657 45.7184 24.4403C46.012 24.715 46.5754 24.928 47.4087 25.0795L51.8406 25.875C54.0754 26.2822 55.7373 26.9687 56.8264 27.9347C57.9248 28.8911 58.4788 30.1742 58.4883 31.7841C58.4788 33.3371 58.0148 34.6866 57.0962 35.8324C56.1871 36.9687 54.9419 37.8494 53.3604 38.4744C51.7885 39.09 49.994 39.3977 47.9769 39.3977C44.6436 39.3977 42.0347 38.7159 40.1502 37.3523C38.2752 35.9886 37.2288 34.1894 37.011 31.9545H44.7951C44.8993 32.6458 45.2402 33.1809 45.8178 33.5597C46.4049 33.929 47.1436 34.1136 48.0337 34.1136C48.7534 34.1136 49.3453 33.9905 49.8093 33.7443C50.2828 33.4981 50.5243 33.1477 50.5337 32.6932C50.5243 32.2765 50.3159 31.9451 49.9087 31.6989C49.511 31.4527 48.886 31.2538 48.0337 31.1023L44.1701 30.4205C41.9447 30.0322 40.2781 29.2936 39.1701 28.2045C38.0621 27.1155 37.5129 25.714 37.5224 24C37.5129 22.4848 37.9106 21.2017 38.7156 20.1506C39.5299 19.09 40.69 18.285 42.1957 17.7358C43.7108 17.1771 45.5053 16.8977 47.5792 16.8977C50.7326 16.8977 53.2184 17.5511 55.0366 18.858C56.8642 20.1648 57.8254 21.9735 57.9201 24.2841ZM74.5039 17.1818V22.8636H60.1289V17.1818H74.5039ZM62.913 11.9545H70.7539V31.983C70.7539 32.286 70.806 32.5417 70.9102 32.75C71.0143 32.9489 71.1753 33.1004 71.3931 33.2045C71.6109 33.2992 71.8903 33.3466 72.2312 33.3466C72.4679 33.3466 72.7425 33.3182 73.055 33.2614C73.377 33.2045 73.6138 33.1572 73.7653 33.1193L74.9016 38.6307C74.5513 38.7348 74.0494 38.8627 73.396 39.0142C72.752 39.1657 71.985 39.2652 71.0948 39.3125C69.2956 39.4072 67.7852 39.2225 66.5636 38.7585C65.342 38.285 64.4234 37.5417 63.8079 36.5284C63.1924 35.5152 62.8941 34.2462 62.913 32.7216V11.9545ZM77.7035 39V17.1818H85.3171V21.3295H85.5444C85.9421 19.7955 86.5719 18.6733 87.4336 17.9631C88.3048 17.2528 89.3228 16.8977 90.4876 16.8977C90.8285 16.8977 91.1647 16.9261 91.4961 16.983C91.837 17.0303 92.1637 17.1013 92.4762 17.196V23.8864C92.0879 23.7538 91.6097 23.6544 91.0415 23.5881C90.4734 23.5218 89.9857 23.4886 89.5785 23.4886C88.8114 23.4886 88.1201 23.6638 87.5046 24.0142C86.8986 24.3551 86.4203 24.8381 86.07 25.4631C85.7196 26.0786 85.5444 26.803 85.5444 27.6364V39H77.7035Z" fill="#4EA8DE"/>
<path d="M95.0472 39V17.1818H102.888V39H95.0472ZM98.9677 14.9091C97.9071 14.9091 96.998 14.5587 96.2404 13.858C95.4828 13.1572 95.104 12.3144 95.104 11.3295C95.104 10.3447 95.4828 9.50189 96.2404 8.80114C96.998 8.10038 97.9071 7.75 98.9677 7.75C100.038 7.75 100.947 8.10038 101.695 8.80114C102.453 9.50189 102.831 10.3447 102.831 11.3295C102.831 12.3144 102.453 13.1572 101.695 13.858C100.947 14.5587 100.038 14.9091 98.9677 14.9091ZM114.781 39.2841C113.228 39.2841 111.798 38.8769 110.491 38.0625C109.194 37.2481 108.152 36.0123 107.366 34.3551C106.59 32.6979 106.201 30.6098 106.201 28.0909C106.201 25.4583 106.609 23.3182 107.423 21.6705C108.247 20.0227 109.307 18.8153 110.605 18.0483C111.912 17.2812 113.285 16.8977 114.724 16.8977C115.804 16.8977 116.751 17.0871 117.565 17.4659C118.379 17.8352 119.061 18.3324 119.61 18.9574C120.16 19.5729 120.576 20.25 120.86 20.9886H120.974V9.90909H128.815V39H121.031V35.4205H120.86C120.557 36.1591 120.122 36.822 119.554 37.4091C118.995 37.9867 118.313 38.446 117.508 38.7869C116.713 39.1184 115.804 39.2841 114.781 39.2841ZM117.679 33.2614C118.398 33.2614 119.014 33.053 119.525 32.6364C120.046 32.2102 120.444 31.6136 120.718 30.8466C121.002 30.0701 121.145 29.1515 121.145 28.0909C121.145 27.0114 121.002 26.0881 120.718 25.321C120.444 24.5445 120.046 23.9527 119.525 23.5455C119.014 23.1288 118.398 22.9205 117.679 22.9205C116.959 22.9205 116.343 23.1288 115.832 23.5455C115.33 23.9527 114.942 24.5445 114.667 25.321C114.402 26.0881 114.27 27.0114 114.27 28.0909C114.27 29.1705 114.402 30.0985 114.667 30.875C114.942 31.642 115.33 32.2339 115.832 32.6506C116.343 33.0578 116.959 33.2614 117.679 33.2614ZM143.119 39.3977C140.789 39.3977 138.782 38.9527 137.096 38.0625C135.42 37.1629 134.127 35.875 133.218 34.1989C132.319 32.5133 131.869 30.4962 131.869 28.1477C131.869 25.8939 132.324 23.9242 133.233 22.2386C134.142 20.553 135.425 19.2415 137.082 18.304C138.739 17.3665 140.695 16.8977 142.949 16.8977C144.596 16.8977 146.088 17.1534 147.423 17.6648C148.758 18.1761 149.899 18.9195 150.846 19.8949C151.793 20.8608 152.522 22.035 153.034 23.4176C153.545 24.8002 153.801 26.358 153.801 28.0909V29.9091H134.312V25.5909H146.585C146.575 24.9659 146.414 24.4167 146.102 23.9432C145.799 23.4602 145.387 23.0862 144.866 22.821C144.355 22.5464 143.772 22.4091 143.119 22.4091C142.484 22.4091 141.902 22.5464 141.372 22.821C140.842 23.0862 140.415 23.4555 140.093 23.929C139.781 24.4025 139.615 24.9564 139.596 25.5909V30.25C139.596 30.9508 139.743 31.5758 140.037 32.125C140.33 32.6742 140.752 33.1051 141.301 33.4176C141.85 33.7301 142.513 33.8864 143.289 33.8864C143.829 33.8864 144.322 33.8106 144.767 33.6591C145.221 33.5076 145.609 33.2898 145.931 33.0057C146.253 32.7121 146.49 32.3617 146.642 31.9545H153.801C153.555 33.4697 152.972 34.786 152.054 35.9034C151.135 37.0114 149.918 37.8731 148.403 38.4886C146.897 39.0947 145.136 39.3977 143.119 39.3977Z" fill="#5E60CE"/>
<g clip-path="url(#clip0_2_155)">
<path d="M15.0293 5.91069C19.2916 11.2015 21.5668 17.7259 21.4843 24.4207V26.0188L22.8906 26.8555C24.7076 27.931 26.0627 29.5991 26.709 31.5558C26.1415 31.1473 25.5479 30.7737 24.9316 30.4371L21.1816 28.3784L20.5078 32.5335C20.4494 32.9007 20.3712 33.2646 20.2734 33.624H9.76559C9.60934 33.1539 9.48239 32.6839 9.3652 32.1951L8.51559 28.4348L5.05856 30.3149C4.48101 30.6307 3.9234 30.9792 3.38864 31.3584C4.0475 29.4243 5.37431 27.7655 7.1484 26.658L8.48629 25.8214V24.3361C8.51043 17.6684 10.8131 11.1936 15.039 5.91069H15.0293ZM15.039 2C14.8199 2.00052 14.6083 2.07731 14.4433 2.21622L14.3554 2.29142C8.72415 8.35418 5.59717 16.1939 5.56637 24.3267C3.17672 25.8191 1.40786 28.0725 0.568896 30.6929C-0.270071 33.3134 -0.125789 36.1343 0.976529 38.6627C2.13776 36.194 4.07896 34.1411 6.5234 32.7967C6.76856 33.8189 7.09504 34.8215 7.49997 35.7955C7.55132 35.9828 7.66515 36.1486 7.82394 36.2675C7.98274 36.3864 8.17771 36.4518 8.37887 36.4536H21.9336C22.207 36.4536 22.4804 36.1998 22.6172 35.8049C23.0124 34.8789 23.2879 33.9096 23.4375 32.9189C25.8866 34.2577 27.8294 36.3122 28.9843 38.785C30.1532 36.269 30.3341 33.4302 29.4936 30.7955C28.6532 28.1609 26.8483 25.9092 24.414 24.4583C24.5106 16.2775 21.4002 8.36239 15.7031 2.29142C15.6183 2.20011 15.5144 2.12699 15.3983 2.07678C15.2823 2.02658 15.1565 2.00042 15.0293 2H15.039Z" fill="#4EA8DE"/>
<path d="M15.0293 23.5464C14.2792 23.5464 13.5459 23.3326 12.9219 22.932C12.2978 22.5314 11.8109 21.962 11.5225 21.2954C11.2342 20.6288 11.1573 19.895 11.3015 19.1864C11.4457 18.4778 11.8046 17.8262 12.3329 17.3137C12.8613 16.8012 13.5354 16.4507 14.2704 16.3064C15.0054 16.1621 15.7682 16.2305 16.4629 16.503C17.1575 16.7755 17.7528 17.2398 18.1737 17.8374C18.5946 18.4351 18.8224 19.1393 18.8281 19.8613C18.8398 20.3293 18.7556 20.7948 18.5803 21.2314C18.405 21.668 18.1421 22.067 17.8065 22.4057C17.471 22.7445 17.0694 23.0162 16.6247 23.2055C16.18 23.3948 15.7009 23.4978 15.2149 23.5088C15.1534 23.5183 15.0908 23.5183 15.0293 23.5088V23.5464Z" fill="#4EA8DE"/>
<path d="M20.3125 38.7944C20.0682 38.7868 19.8247 38.8264 19.5964 38.9106C19.3682 38.9949 19.1597 39.1222 18.9832 39.2851C18.8068 39.4479 18.6658 39.6431 18.5688 39.8591C18.4717 40.0751 18.4204 40.3076 18.418 40.5429V46.0893C18.418 46.573 18.6176 47.0369 18.9729 47.3789C19.3282 47.7209 19.81 47.913 20.3125 47.913C20.815 47.913 21.2968 47.7209 21.6521 47.3789C22.0074 47.0369 22.207 46.573 22.207 46.0893V40.6181C22.2148 40.3837 22.1741 40.1501 22.0872 39.931C22.0002 39.7118 21.8688 39.5116 21.7007 39.3418C21.5325 39.1721 21.331 39.0362 21.1077 38.9422C20.8845 38.8483 20.644 38.798 20.4004 38.7944H20.3125Z" fill="#5E60CE"/>
<path d="M9.76562 38.7944C9.51713 38.7817 9.26852 38.8173 9.0346 38.899C8.80069 38.9808 8.58624 39.1069 8.40401 39.2701C8.22179 39.4332 8.07552 39.63 7.9739 39.8486C7.87228 40.0673 7.81739 40.3034 7.8125 40.5429V46.0893C7.8125 46.573 8.0121 47.0369 8.36739 47.3789C8.72269 47.7209 9.20457 47.913 9.70703 47.913C10.2095 47.913 10.6914 47.7209 11.0467 47.3789C11.402 47.0369 11.6016 46.573 11.6016 46.0893V40.6181C11.6094 40.3837 11.5686 40.1501 11.4817 39.931C11.3948 39.7118 11.2634 39.5116 11.0952 39.3418C10.9271 39.1721 10.7255 39.0362 10.5022 38.9422C10.279 38.8483 10.0386 38.798 9.79492 38.7944H9.76562Z" fill="#5E60CE"/>
<path d="M14.8926 38.7943C14.6489 38.7894 14.4066 38.8306 14.1795 38.9158C13.9524 39.001 13.7449 39.1284 13.569 39.2908C13.3931 39.4532 13.2521 39.6473 13.1541 39.8622C13.0562 40.077 13.0031 40.3083 12.998 40.5429V48.1857C12.998 48.6693 13.1976 49.1332 13.5529 49.4752C13.9082 49.8172 14.3901 50.0094 14.8926 50.0094C15.395 50.0094 15.8769 49.8172 16.2322 49.4752C16.5875 49.1332 16.7871 48.6693 16.7871 48.1857V40.6651C16.7949 40.4307 16.7542 40.1971 16.6672 39.9779C16.5803 39.7588 16.4489 39.5586 16.2808 39.3888C16.1126 39.2191 15.911 39.0832 15.6878 38.9892C15.4645 38.8952 15.2241 38.845 14.9805 38.8414L14.8926 38.7943Z" fill="#5E60CE"/>
</g>
<defs>
<clipPath id="clip0_2_155">
<rect width="30" height="48" fill="white" transform="translate(0 2)"/>
</clipPath>
</defs>
</svg>
